<svg width="607" height="149" viewBox="0 0 607 149" fill="none" xmlns="http://www.w3.org/2000/svg">
<path fill-rule="evenodd" clip-rule="evenodd" d="M591.594 13.4334C581.456 4.47779 561.621 0 541.804 0C518.459 0 488.982 2.46989 480.279 29.6209C475.669 43.9982 480.546 51.7506 485.415 59.4893C488.803 64.8729 492.186 70.2499 492.367 77.846C492.566 86.2216 489.523 93.3617 486.626 100.157C481.756 111.585 477.301 122.038 489.372 135.755C500.752 148.673 521.774 148.815 541.591 148.815C561.426 148.815 581.261 144.391 591.488 135.56C601.68 126.729 606.803 114.201 606.803 97.996V51.5301C606.803 35.0938 601.716 22.3889 591.559 13.4156L591.594 13.4334ZM575.748 95.7394C575.748 106.667 573.461 114.344 568.906 118.821C564.333 123.299 551.695 125.538 540.722 125.538C529.75 125.538 517.112 123.299 512.539 118.821C507.966 114.344 505.697 106.65 505.697 95.7394V53.8045C505.697 42.6456 507.984 34.7562 512.539 30.154C517.112 25.5518 529.75 23.2596 540.722 23.2596C551.695 23.2596 564.333 25.5341 568.906 30.154C573.479 34.7739 575.748 42.6456 575.748 53.8045V95.7394ZM61.4512 147.997C49.5956 147.997 38.3407 146.167 27.6689 142.507C16.9971 138.846 7.77415 133.178 0 125.484L10.6011 104.766C18.2693 111.251 26.5028 116.12 35.3017 119.354C44.1007 122.606 54.1364 124.205 65.3912 124.205C74.3669 124.205 81.2046 122.588 85.8691 119.354C90.5336 116.102 92.8835 111.429 92.8835 105.299C92.8835 99.7903 90.1625 95.7746 84.7029 93.3224C79.261 90.8526 67.7235 88.1161 50.1256 85.1132C33.2345 82.4656 21.3083 78.1833 14.3645 72.2307C7.42078 66.2781 3.94008 57.3759 3.94008 45.4707C3.94008 32.6238 8.74592 21.9624 18.3223 13.5044C27.9163 5.06416 41.9274 0.817386 60.3734 0.817386C71.5222 0.817386 82.141 2.64759 92.3004 6.32575C102.424 9.98615 110.428 15.0503 116.294 21.5537L106.948 41.3661C99.7565 35.911 92.2297 31.7531 84.3849 28.8923C76.5401 26.0493 68.3596 24.61 59.861 24.61C51.9455 24.61 45.7262 26.0315 41.1677 28.8568C36.6092 31.682 34.33 36.0532 34.33 41.9702C34.33 47.5141 37.1216 51.4944 42.6872 53.9109C48.2528 56.3275 60.02 59.1172 77.9889 62.2446C94.6503 65.1231 106.382 69.6187 113.22 75.749C120.058 81.8615 123.468 90.8703 123.468 102.758C123.468 117.044 117.973 128.15 107.018 136.074C96.0462 143.999 80.8689 147.962 61.4512 147.962V147.997ZM216.624 148.815C195.204 148.815 174.921 144.391 165.472 135.542C156.024 126.675 151.299 112.993 151.299 94.4248V2.45305H181.99V91.8839C181.99 103.434 184.033 111.643 188.135 116.458C192.238 121.291 204.955 123.69 216.642 123.69C228.328 123.69 241.045 121.274 245.148 116.458C247.747 113.407 248.407 108.866 249.247 103.091C249.732 99.7512 250.278 95.9989 251.293 91.8839C252.308 87.7829 255.927 82.5034 259.635 77.0925C264.298 70.2889 269.103 63.2776 269.054 58.1408C269.004 52.9999 264.203 46.3241 259.566 39.8769C255.885 34.7586 252.307 29.7845 251.293 25.8369C249.837 20.1864 251.293 2.45305 251.293 2.45305H281.984C281.984 2.45305 282.304 19.9909 281.984 25.8369C281.786 29.3623 281.076 34.4207 280.341 39.6483L280.341 39.6489L280.341 39.6499C279.425 46.1732 278.471 52.9597 278.432 57.3589C278.391 62.6581 279.404 70.9213 280.365 78.7715L280.365 78.7723C281.094 84.715 281.793 90.4209 281.984 94.4248C282.872 112.958 277.259 126.693 267.811 135.542C258.344 144.391 238.079 148.815 216.659 148.815H216.624ZM340.587 33.861L401.945 146H401.953H444V99.056C444 88.271 440.956 79.5771 438.128 71.5005C435.383 63.6602 432.842 56.4016 433.486 48.3762C434.115 40.53 436.859 36.4534 439.387 32.6996C441.792 29.1273 444 25.8473 444 19.8889V2H417.585C412.777 13.3143 407.929 25.3527 413.979 50.1947C422.343 84.5737 417.585 114.493 417.585 114.493L356.227 2H314V146H340.587V33.861Z" fill="#FFFFFF"/>
</svg>
